<?xml version="1.0" encoding="utf-8"?>
<!-- Generator: Adobe Illustrator 27.2.0, SVG Export Plug-In . SVG Version: 6.00 Build 0)  -->
<svg version="1.1" id="Layer_1" xmlns="http://www.w3.org/2000/svg" xmlns:xlink="http://www.w3.org/1999/xlink" x="0px" y="0px"
	 viewBox="0 0 758.3 611.92" style="enable-background:new 0 0 758.3 611.92;" xml:space="preserve">
<path d="M30.45,422.81c1.96,16.88,3.68,33.8,5.94,50.64c3.55,26.52,7.46,53,11.22,79.49c0.21,1.5,0.45,3,0.64,4.51
	c0.72,5.92-0.01,11.32-6.42,13.76c-5.25,2-11.1-1.19-13.75-8.81c-2.8-8.05-4.88-16.51-6.05-24.95
	C14.59,483.93,7.47,430.36,0.34,376.8c-2.18-16.36,6.3-23.51,21.41-16.72c22.08,9.92,43.71,20.91,65.19,32.08
	c14.78,7.68,28.99,16.45,43.46,24.74c2.63,1.5,5.44,2.78,7.8,4.63c5.9,4.64,7.25,10.72,3.87,15.87c-3.75,5.71-9.55,5.57-17.05,1.24
	c-24.02-13.88-48.28-27.35-72.5-40.88c-1.61-0.9-3.66-1-7.2-1.91c1.46,7.97,5.89,12.8,10,17.2c20.36,21.74,40.35,43.92,61.9,64.45
	c27.85,26.52,58.01,50.49,90.96,70.46c64.68,39.2,134.13,52.52,208.09,33.99c50.72-12.7,90.17-42.02,117.99-86.56
	c2.14-3.42,4.07-6.98,5.89-10.58c0.63-1.25,0.65-2.82,1.38-6.29c-5.26-0.22-10.03-0.45-14.81-0.6
	c-49.04-1.53-92.1-18.67-127.5-52.36c-41.38-39.38-56.61-87.81-41.99-143.66c10.52-40.16,42.57-67.06,81.57-71.12
	c17.55-1.82,34.32,1.96,50.19,9c53.18,23.58,82.61,66.29,95.51,121.46c7.27,31.06,5.35,62.25-1.83,93.2
	c-0.79,3.43-1.42,6.9-1.91,10.39c-0.12,0.87,0.61,1.85,1.41,4.04c6.07-2.17,12.27-4.05,18.2-6.57
	c37.65-15.97,65.97-42.58,86.74-77.4c19.61-32.87,31.6-68.73,39.76-105.93c14.78-67.35,11.83-133.5-14.12-197.97
	c-6.24-15.51-12.86-30.81-24.91-42.96c-4.36-4.4-6.19-9.45-2.05-14.85c3.35-4.37,10.99-4.53,16.09,1.25
	c7.62,8.63,15.1,17.84,20.42,27.97c23.39,44.58,35.66,92.29,35.96,142.66c0.36,59.98-12.45,117.36-36.85,172.11
	c-19.86,44.55-48.76,81.65-92.12,105.36c-15.36,8.4-32.38,13.98-49.04,19.68c-6.7,2.29-11.18,4.83-14.5,11.46
	c-44.87,89.64-119.64,129.31-217.73,128.22c-58.04-0.65-111.47-17.8-159.71-50.17c-56.56-37.96-107.5-82.28-150.77-135.11
	c-1.26-1.54-2.25-3.31-3.37-4.98C32.95,422.03,31.7,422.42,30.45,422.81z M523.29,456.08c6.97-0.05,12.03,0.1,17.07-0.15
	c12.73-0.61,13.22-1.09,16.89-12.88c7.12-22.91,9.75-46.41,8.83-70.3c-1.25-32.7-11.52-62.41-30.97-88.7
	c-17.29-23.36-39.31-40.52-67.77-48.35c-32.31-8.89-62.37,2.8-79.44,31.66c-4.8,8.12-8.6,17.31-10.64,26.5
	c-8.56,38.56,0.64,73.46,25.85,103.35C434.82,434.82,476.85,452.29,523.29,456.08z"/>
</svg>
