<?xml version="1.0" encoding="utf-8"?>
<!-- Generator: Adobe Illustrator 27.2.0, SVG Export Plug-In . SVG Version: 6.00 Build 0)  -->
<svg version="1.1" id="Layer_1" xmlns="http://www.w3.org/2000/svg" xmlns:xlink="http://www.w3.org/1999/xlink" x="0px" y="0px"
	 viewBox="0 0 257.4 266" style="enable-background:new 0 0 257.4 266;" xml:space="preserve">
<path d="M207.4,266c-0.3,0-0.7,0-1,0c0.1-8,0.2-16,0.1-23.9c0-1.4-1.3-4-2.1-4.1c-5.6-0.4-11.2-0.2-17.9-0.2c0,9.2,0,18.2,0,27.1
	c-0.9,0-1.8,0-2.6,0c-1-9.1,1.3-18.5-0.2-27.9c-6.4-0.5-12.4-0.9-19.3-1.4c0,8.5,0.1,16.1-0.1,23.7c0,1.2-1.1,2.4-1.6,3.5
	c-0.5-1.2-1.4-2.4-1.4-3.6c0-6.8,0.3-13.7,0.2-20.5c0-1.3-1.2-3.5-2.1-3.6c-5.5-0.8-11.1-1.1-17.6-1.6c0,9.8,0,18.6,0,27.6
	c-1.5-0.2-2.4-0.3-2.4-0.4c-0.1-9-0.1-18.1-0.1-27.5c-5.6-0.3-10.2-0.3-14.8-0.7c-3.6-0.3-5.1,0.7-4.9,4.6c0.3,6.3,0,12.7-0.2,19
	c0,1.4-0.8,2.8-1.3,4.1c-0.5-0.1-1.1-0.2-1.6-0.4c0-4.2,0-8.5,0-12.7c0.2-15.3,0.2-15.2-15.3-14.4c-3.4,0.2-4.1,1.4-4.1,4.5
	c0.1,6.7-0.1,13.3-0.4,20c-0.1,1.3-0.9,2.6-1.4,3.9c-0.6-0.1-1.2-0.3-1.8-0.4c0-9,0-18,0-27.4c-6.6,0.6-12.5,1.1-18.9,1.7
	c0,2.1,0,3.7,0,5.3c-0.1,6.5-0.2,13-0.5,19.5c0,1.1-1.1,2.2-1.7,3.3c-0.5-0.2-1-0.5-1.5-0.7c0-8.9,0-17.7,0-27
	c-6.4,0.6-12.3,1.1-18.8,1.6c0,2.1,0,3.7,0,5.3c-0.2,6.3-0.3,12.7-0.7,19c-0.1,1.3-1,2.5-1.5,3.8c-0.5-0.2-1-0.3-1.5-0.5
	c0-9,0-18.1,0-26.9c-6.4,0-12.3,0-18.5,0c-1.2,9.4,0.4,18.6-1.7,27.4c-0.6,0-1.2-0.1-1.8-0.1c0-8.9,0-17.9,0-27.3
	c-4.2-0.2-7.9-0.3-11.5-0.7c-3.3-0.4-7.1,1.1-11-3.1c8.2,0,15,0,22.2,0c-0.3-5.7-0.4-10.9-1.1-16c-0.1-1.2-2.1-2.8-3.5-3
	c-4.8-0.6-9.6-0.6-14.4-1c-1.4-0.1-2.7-1.1-4-1.6c0.1-0.4,0.3-0.8,0.4-1.2c6.9,0,13.7,0,21,0c-0.5-5.2-1-9.9-1.3-14.7
	c-0.1-3.1-1.3-4.4-4.6-4.4c-4.8,0-9.7-0.4-14.5-0.9c-1.1-0.1-2.2-1.2-3.3-1.8c0.2-0.3,0.4-0.6,0.5-0.9c6.8,0,13.7,0,20.8,0
	c-0.3-5.6-0.5-10.7-1.1-15.8c-0.2-1.2-2.1-2.8-3.4-2.9c-4.6-0.6-9.3-0.6-13.9-1c-1.4-0.1-2.8-0.8-4.1-1.2c0.1-0.5,0.1-1,0.2-1.5
	c6.9,0,13.7,0,21.2,0c0-5.2-0.1-10.2,0-15.2c0.1-2.8-1-3.8-3.7-3.9c-4.7-0.1-9.3-0.5-14-0.9c-1.2-0.1-2.4-1-3.6-1.5
	c0.1-0.5,0.3-1,0.4-1.5c6.8,0.3,13.7,0.6,21,0.9c0.4-6.6,0.8-12.7,1.3-19.1c-4.1-0.2-7.6-0.4-11.1-0.7c-3.3-0.3-6.6-0.6-10-1
	c0-0.6,0-1.2-0.1-1.8c1.3-0.3,2.7-0.8,4-0.7c4.7,0.1,9.3,0.6,14,0.6c1.2,0,3.4-1.2,3.6-2.1c0.8-5.4,1.1-10.8,1.6-16.5
	c-7.5-0.6-14.3-1.2-21.2-1.8c0-0.7,0.1-1.5,0.1-2.2c1.5-0.1,3-0.5,4.4-0.4c4.5,0.2,9,0.6,13.5,0.6c1.2,0,3.4-1.3,3.5-2.2
	c0.6-5.4,0.8-10.9,1.1-16.7c-4.3-0.3-8-0.5-11.6-0.7c-8.4-0.4-8.4-0.4-9.2-2.9c5.6,0,11.2-0.1,16.8,0.1c3,0.1,4.3-0.8,4.1-3.9
	c-0.2-3.8-0.3-7.7-0.2-11.5c0.1-3.1-1.4-4-4.2-4c-4.7,0-9.3-0.3-14-0.7c-1.3-0.1-2.5-1-3.7-1.6c0.1-0.4,0.2-0.8,0.4-1.2
	c6.8,0,13.7,0,21.1,0c-0.4-5.1-0.9-10.1-1-15c-0.1-3-1.3-4.1-4.3-4.1c-4.7-0.1-9.3-0.3-14-0.7c-1.4-0.1-2.7-1.1-4.1-1.7
	c0.1-0.4,0.3-0.8,0.4-1.2c6.9,0,13.7,0,21.1,0c-0.4-4.4-0.9-8.5-1-12.6c-0.1-4-1.7-8.2,0-12.1c0.6,0,1.3-0.1,1.9-0.1
	c0.9,8.4,1.8,16.8,2.7,24.9c6.7,0,12.7,0,19,0c-0.4-4.9-1.1-9.2-1-13.5c0-3.9-2.5-8.3,0.4-11.9c0.5,0,1.1,0,1.6,0
	c0.8,8.3,1.6,16.7,2.4,25.5c5.2-0.4,9.9-0.8,14.7-0.9c3.6-0.1,4.5-1.6,4.1-5c-0.7-4.9-1.1-9.9-1.2-14.9c-0.1-2,0.8-4,1.3-6
	c0.6,1.8,1.5,3.7,1.7,5.5c0.7,6.4,1.2,12.8,1.8,19.6c6.7-0.7,12.7-1.2,18.9-1.9c-0.6-7.7-1.2-14.6-1.6-21.6c-0.1-1.3,0.7-2.6,1.1-4
	c0.5,0.1,1.1,0.2,1.6,0.3c0.7,8.2,1.5,16.4,2.3,25.1c6.6-0.3,12.7-0.7,19.1-1c-0.2-2.9-0.4-5-0.5-7.2c-0.2-6.3-0.4-12.6-0.6-18.9
	c0.3,0,0.7,0,1,0c0.6,1.6,1.6,3.2,1.7,4.9c0.6,5.8,0.8,11.6,1.5,17.4c0.2,1.4,1.7,3.6,2.7,3.7c5.4,0.4,10.9,0.2,16.6,0.2
	c-0.6-8.2-1.1-16.6-1.7-24.9c0.6-0.1,1.3-0.3,1.9-0.4c0.5,1.4,1.2,2.7,1.3,4.1c0.6,6.1,0.9,12.3,1.7,18.4c0.2,1.3,1.4,3.4,2.4,3.5
	c5.5,0.8,11.1,1.1,17.2,1.7c-0.7-8.9-1.3-17.1-1.9-25.3c0.7-0.2,1.3-0.3,2-0.5c0.5,1.3,1.3,2.6,1.4,4c0.6,6.3,1,12.6,1.7,18.9
	c0.1,1.2,1.2,3.1,2.1,3.2c5.7,0.8,11.4,1.1,17.5,1.6c-0.6-7.3-1.3-13.8-1.7-20.2c-0.1-1.7,0.6-3.5,1-5.3c0.7,1.6,1.9,3.1,2.1,4.7
	c0.7,5.8,1,11.6,1.7,17.4c0.2,1.3,1.4,3.5,2.3,3.5c5.6,0.3,11.2,0.2,17.2,0.2c-0.7-8.5-1.3-16.6-1.9-24.8c0.7-0.1,1.4-0.3,2.2-0.4
	c2.2,3.6,1.3,8,1.9,12c0.6,4.4,0.9,8.8,1.2,12.8c6.8,0,12.8,0,18.9,0c0.3-9-2.5-17.3-0.9-25.5c0.7,0,1.4,0,2.1,0
	c0.8,8.2,1.5,16.4,2.4,25.2c7.2-0.6,13.9-1.3,20.6-1.8c1.3-0.1,2.7,0.5,4,0.8c-0.1,0.6-0.1,1.2-0.2,1.9c-7.8,0.8-15.7,1.6-24.1,2.5
	c0.5,6.5,1,12.5,1.6,18.9c7.3-0.6,13.9-1.3,20.5-1.7c1.3-0.1,2.6,0.9,3.9,1.4c-1.2,0.6-2.4,1.5-3.6,1.6c-6.7,0.8-13.5,1.4-20.1,2
	c0,6.6,0,12.7,0,19.1c8.7-0.7,16.8-1.4,24.9-2c0,1,0,2,0,3c-7.1,0.7-14.3,1.2-21.3,2.2c-1.4,0.2-3.6,1.6-3.7,2.7
	c-0.6,5.4-0.7,10.8-1,16.9c8.6-0.7,16.4-1.4,24.3-2c0.2,0.5,0.3,1,0.5,1.6c-1.2,0.6-2.3,1.6-3.6,1.7c-5.9,0.7-11.9,1.1-17.9,1.9
	c-1.4,0.2-3.6,1.3-3.7,2.2c-0.8,5.5-1.1,11.1-1.6,17.3c8.6-0.7,16.4-1.3,24.2-1.9c0.2,0.6,0.3,1.1,0.5,1.7c-1.4,0.6-2.7,1.5-4.1,1.7
	c-5.8,0.6-11.6,0.9-17.4,1.6c-1.4,0.2-3.6,1.3-3.7,2.3c-0.7,5.5-1,11.1-1.4,17.4c8.7-0.7,16.6-1.4,24.6-2c0.1,0.7,0.3,1.3,0.4,2
	c-1.6,0.5-3.2,1.4-4.9,1.5c-5.5,0.6-11,0.8-16.4,1.5c-1.4,0.2-3.6,1.7-3.7,2.7c-0.4,5.4-0.2,10.8-0.2,16.8
	c8.5-0.7,16.3-1.3,24.2-1.9c0.1,0.6,0.3,1.2,0.4,1.8c-1.4,0.5-2.7,1.3-4.1,1.5c-5.6,0.6-11.3,0.9-16.9,1.7c-1.3,0.2-3.2,2-3.2,3
	c0,5.3,0.5,10.5,0.9,15.8c8.6,0.9,16.6-2.2,24.6,0.2c-1.8,1.3-3.7,1.7-5.6,1.9c-5,0.5-10,0.7-14.9,1.4c-1.3,0.2-3.4,1.9-3.3,2.9
	c0.1,5.3,0.8,10.5,1.4,16.4c7.4-0.6,14.3-1.3,21.2-1.7c1.1-0.1,2.2,0.8,3.3,1.2c-1,0.6-1.9,1.7-2.9,1.8c-6,0.7-11.9,1.1-17.9,1.8
	c-1.2,0.2-3.1,1.7-3.1,2.6c0,5.4,0.5,10.8,0.9,16.7c8.4-0.7,16.2-1.3,24.1-1.9c0.1,0.7,0.2,1.5,0.3,2.2c-1.5,0.4-2.9,0.9-4.4,1.1
	c-4.8,0.6-9.6,1.4-14.4,1.3c-4.9-0.1-5.7,2.1-5.6,6.3c0.2,6.1-0.2,12.3-0.5,18.5c-0.1,1.3-1,2.6-1.5,3.9c-0.5-0.2-1-0.3-1.4-0.5
	c0-8.9,0-17.8,0-27.2c-6.5,0.3-12.5,0.6-19.4,1c0,8.1,0.1,15.6-0.1,23C209.2,262.5,208.1,264.2,207.4,266z M223.5,166
	c0-6.8,0-12.9,0-19c-23.1,0.9-18.2-3.3-18.9,15.5c0,0.3-0.1,0.8,0.1,1c1,1.1,2.1,3,3.3,3.1C213.1,166.7,218.2,166.2,223.5,166z
	 M133.9,161.4c0-6.2,0-12.1,0-18.6c-6.1,0-12.1,0-18.7,0c0,5.9,0,12,0,18.6C121.1,161.4,127.2,161.4,133.9,161.4z M140.7,210.8
	c0.4,6.1,0.6,11.3,1.1,16.4c0.1,1.1,1.4,2.9,2.3,3.1c5.5,0.7,11.1,1.1,17.3,1.6c-0.4-6.2-0.7-11.8-1.3-17.3c-0.1-0.8-1.3-2-2.2-2.1
	C152.4,211.7,146.8,211.3,140.7,210.8z M94.6,116.5c5.9,0,11.3,0.1,16.7-0.1c0.9,0,2.4-1,2.5-1.7c0.7-5.7,1.1-11.3,1.7-17.9
	c-6.9,0.5-12.7,1-18.6,1.4c-0.7,4.7-1.4,9.4-2,14C94.7,113.6,94.7,114.9,94.6,116.5z M183.7,56.6c-6.6-0.5-12.7-1-18.9-1.5
	c0,6.1-0.1,11.3,0.1,16.6c0,1,1.5,2.7,2.5,2.8c5.4,0.7,10.8,0.9,16.3,1.3C183.7,69.2,183.7,63.2,183.7,56.6z M47.3,143.8
	c6.3-0.5,11.9-0.9,17.5-1.4c0.7-0.1,1.8-1.1,1.9-1.8c0.6-5.7,0.9-11.4,1.4-17.6c-6.3,0.5-11.8,0.8-17.2,1.3c-0.8,0.1-2.1,1.3-2.2,2
	C48.1,131.9,47.8,137.5,47.3,143.8z M160,144.9c0,6.7,0,12.7,0,19.2c6.3,0.6,12.3,1.1,19.1,1.7c0-6.1,0.1-11.5-0.1-17
	c0-0.9-1.7-2.4-2.8-2.5C171.1,145.6,165.9,145.4,160,144.9z M43.9,147.3c-5.8,0-11.1-0.2-16.3,0.1c-1,0.1-2.6,1.8-2.8,2.9
	c-2.2,15.3,0.1,17.6,15.4,16.2c0.3,0,0.8,0.1,1-0.1c1-1,2.6-2.1,2.6-3.2C44,158.2,43.9,153.1,43.9,147.3z M209.9,75.7
	c5.9,0,11,0.1,16.1-0.1c1.1-0.1,2.9-1.5,2.9-2.4c0.3-5.6,0.1-11.1,0.1-17c-7.3,0.4-13.2,0.7-19.2,1
	C209.9,63.7,209.9,69.6,209.9,75.7z M159.8,209.1c-0.6-6.2-1.1-12-1.8-17.8c-0.1-0.6-1.3-1.5-2.1-1.6c-5.5-0.6-11.1-1-17.3-1.6
	c0.6,6.2,1,11.8,1.8,17.3c0.1,0.9,1.9,2.2,3.1,2.3C148.5,208.3,153.6,208.6,159.8,209.1z M182.4,144.1c6.1,0,11.2,0.1,16.3-0.1
	c1.1,0,2.9-1,3-1.7c0.6-5.7,0.9-11.4,1.4-17.6c-6.9,0-12.9,0-19.3,0C183.3,130.9,182.9,136.9,182.4,144.1z M28.4,102.4
	c-0.6,6.4-1.2,12.5-1.8,18.7c6.7,0,12.8,0,19.2,0c0.6-6.5,1.1-12.6,1.7-18.7C40.9,102.4,34.8,102.4,28.4,102.4z M185.3,34.6
	c0.4,5.6,0.7,11.1,1.4,16.5c0.1,0.9,1.6,2.2,2.5,2.2c5.4,0.2,10.9,0.1,16.9,0.1c-0.5-5.7-0.8-11.1-1.5-16.5
	c-0.1-0.9-1.7-2.2-2.6-2.2C196.8,34.5,191.5,34.6,185.3,34.6z M116.2,229c-0.4-5.9-0.7-11-1.3-16.1c-0.1-1.1-1.6-2.8-2.5-2.8
	c-5.5,0-11.1,0.3-16.9,0.5c0.5,6.9,1,12.9,1.5,19.2C103.6,229.6,109.5,229.3,116.2,229z M92.6,139.9c6.1-0.3,11.4-0.4,16.7-0.9
	c1-0.1,2.6-1.3,2.7-2.1c0.7-5.5,1-11.1,1.4-16.6c-6,0-11.3-0.1-16.5,0.1c-1,0.1-2.7,1.6-2.9,2.5C93.3,128.3,93.1,133.8,92.6,139.9z
	 M184.1,121.6c6,0,11.3,0.1,16.5-0.1c1,0,2.7-1.2,2.8-2c0.8-5.5,1.2-11.1,1.8-17.2c-6.8,0-12.8,0-19.3,0
	C185.4,108.3,184.8,114.2,184.1,121.6z M205,211.3c-0.5-5.6-1-11.2-1.7-16.7c-0.1-0.8-1.4-2-2.3-2c-5.6-0.2-11.1-0.1-17.1-0.1
	c0.6,6.2,1.2,12.3,1.8,18.8C192.2,211.3,198.3,211.3,205,211.3z M119.7,52.5c0,5.5-0.1,10.6,0.1,15.7c0,1.1,1.4,2.9,2.3,2.9
	c5.4,0.3,10.9,0.1,16.3,0.1c0-6,0-12.2,0-18.8C131.8,52.5,125.9,52.5,119.7,52.5z M48.5,188.9c6.8-0.6,12.6-1,19.1-1.6
	c-0.4-6.5-0.8-12.5-1.2-19.2c-6.6,0.5-12.6,0.9-19.2,1.4C47.7,176.1,48.1,182.2,48.5,188.9z M96.6,53c0.3,6.5,0.6,12.5,0.8,18.2
	c6.6,0,12.6,0,18.4,0c2.8-18.3,1.4-19.9-15.6-18.6C99.3,52.6,98.3,52.7,96.6,53z M70,141.9c7-0.6,13-1.2,19.3-1.8
	c0.5-6.6,0.9-12.7,1.4-19.4c-6.2,0.5-11.5,0.8-16.7,1.6c-1,0.1-2.4,1.7-2.6,2.8C70.7,130.4,70.5,135.7,70,141.9z M74.9,73.8
	c6.6-0.6,12.6-1.2,18.5-1.7c0-6.6,0-12.6,0-19.3c-6.7,0.6-12.7,1.1-18.5,1.7C74.9,61.3,74.9,67.3,74.9,73.8z M182.5,211.1
	c-0.6-6-0.9-11.2-1.6-16.2c-0.2-1.2-1.6-3-2.7-3.2c-5.4-0.8-10.8-1-16.8-1.6c0.6,6.1,1,11.7,1.7,17.2c0.1,0.9,1.6,2.2,2.5,2.3
	C170.9,210.3,176.4,210.6,182.5,211.1z M70.1,213c-6.7,0.5-12.8,1-19.1,1.5c0.4,6.7,0.7,12.7,1.1,19.2c5.8-0.5,11.1-0.8,16.3-1.5
	c1-0.1,2.6-1.7,2.6-2.6C70.9,224.2,70.5,218.8,70.1,213z M160.9,51.3c-0.5-6.2-0.9-11.6-1.5-17c-0.1-0.9-1.2-2.2-2-2.3
	c-5.7-0.7-11.4-1.2-17.5-1.7c0.5,6,0.8,11.2,1.5,16.3c0.2,1.3,1.9,3.1,3.1,3.3C149.6,50.6,154.7,50.8,160.9,51.3z M183.5,53.3
	c-0.5-6.2-0.8-11.7-1.4-17.1c-0.1-0.9-1.2-2.2-2-2.3c-5.7-0.7-11.4-1.1-17.5-1.6c0.5,6,0.8,11.2,1.5,16.5c0.2,1.2,1.7,2.9,2.8,3.1
	C172.1,52.5,177.4,52.8,183.5,53.3z M112.3,184.1c-0.3-6-0.4-11.3-0.9-16.6c-0.1-0.9-1.8-2.4-2.8-2.4c-4.5-0.1-9,0.1-13.4,0.6
	c-1,0.1-2.7,1.6-2.7,2.5c0,5.4,0.4,10.8,0.7,16.7C99.8,184.6,105.7,184.4,112.3,184.1z M49.1,121.1c6.2-0.5,11.6-0.8,17-1.4
	c0.9-0.1,2.2-1.2,2.3-2c0.7-5.7,1.1-11.4,1.7-17.6c-7,0.6-13.1,1.1-19.3,1.6C50.3,108.2,49.7,114.2,49.1,121.1z M163.5,212.9
	c0.3,6.1,0.5,11.4,1,16.6c0.1,1.1,1.5,2.7,2.5,2.8c5.4,0.7,10.8,1,16.8,1.5c-0.4-6.1-0.5-11.6-1.1-16.9c-0.1-1-1.7-2.4-2.8-2.5
	C174.8,213.6,169.5,213.4,163.5,212.9z M70.9,187c6.8-0.6,12.9-1.2,19.4-1.9c-0.8-6.9-1.4-12.7-2.1-18.6c-4.8,0.3-9.6,0.5-14.4,0.8
	c-0.7,0-1.5-0.1-1.9,0.3c-0.8,0.6-1.9,1.6-1.9,2.4C70.1,175.5,70.5,181,70.9,187z M51.2,98.4c6.2-0.5,11.8-0.9,17.3-1.5
	c0.7-0.1,1.9-1.2,1.9-1.8c0.4-5.7,0.6-11.4,0.9-17.5C65.1,78,59.8,78.4,54.6,79c-0.9,0.1-2.3,1.5-2.4,2.4
	C51.7,86.8,51.5,92.2,51.2,98.4z M157.6,186.3c-0.4-6.1-0.6-11.6-1.1-17c-0.1-0.9-1.5-2.3-2.4-2.5c-5.4-0.7-10.8-1-16.9-1.5
	c0.3,6.2,0.5,11.7,1,17.1c0.1,0.9,1.2,2.2,2,2.3C145.7,185.4,151.3,185.8,157.6,186.3z M206.5,79.8c-6.8,0-12.7,0-19.2,0
	c-0.3,6-0.7,12-1.1,19.2c6,0,11.4,0.1,16.9-0.1c0.9,0,2.4-1.8,2.5-2.9C206.1,90.9,206.2,85.8,206.5,79.8z M159.8,167.4
	c0.3,6,0.5,11.3,1,16.5c0.1,1,1.2,2.7,2,2.8c5.7,0.7,11.4,1.1,17.4,1.6c-0.3-6.2-0.5-11.5-1-16.7c-0.1-1.1-1.9-2.6-3.1-2.7
	C171,168.2,165.8,167.9,159.8,167.4z M161.2,73.9c0-6.1,0.1-11.5-0.1-16.9c0-0.8-1.1-2.3-1.9-2.4c-5.7-0.7-11.4-1.1-16.9-1.7
	c0,6-0.2,11.3,0.1,16.5c0.1,1.1,1.8,2.8,2.9,2.9C150.4,73.2,155.5,73.5,161.2,73.9z M206.3,124.9c-0.4,6.6-0.8,12.6-1.1,18.5
	c6.9,0,12.9,0,19.1,0c0.5-6.7,0.9-12.8,1.4-19.4C219,124.4,213,124.6,206.3,124.9z M158.3,122.1c-6-0.5-11.2-1.1-16.5-1.3
	c-0.9,0-2.7,1.5-2.8,2.5c-0.7,5.2-0.9,10.5-1.4,16.4c6.5,0.5,12.6,1,19.1,1.6C157.3,134.7,157.8,128.8,158.3,122.1z M118.2,210.5
	c0.4,5.6,0.7,11.1,1.2,16.5c0.1,0.8,1.3,2.1,2.1,2.1c5.6,0.2,11.2,0.1,17.2,0.1c-0.4-6.1-0.9-12.2-1.4-18.7
	C131,210.5,125.1,210.5,118.2,210.5z M206.5,192.6c0.6,6.7,1.2,12.7,1.9,19.2c6.6-0.3,12.6-0.6,19.1-1c-0.6-6.7-1.2-12.7-1.8-19.1
	C219.1,192.1,213,192.3,206.5,192.6z M116.1,187.8c0.5,5.5,0.8,10.9,1.5,16.3c0.1,0.9,1.5,2.4,2.4,2.4c5.6,0.2,11.1,0.1,17,0.1
	c-0.6-6.3-1.2-12.3-1.8-18.8C128.8,187.8,122.7,187.8,116.1,187.8z M117.4,30c0.4,5.5,0.8,10.8,1.4,16.1c0.1,1,1.4,2.5,2.2,2.6
	c5.6,0.2,11.2,0.1,17.2,0.1c-0.5-6.2-1.1-12.2-1.6-18.8C130.1,30,124.1,30,117.4,30z M26.4,192.6c0.6,6.1,1,11.4,1.7,16.6
	c0.1,0.9,1.5,2.4,2.3,2.5c5.5,0.2,11.1,0.1,17.1,0.1c-0.7-7.3-1.4-13.3-2-19.2C39,192.6,33.1,192.6,26.4,192.6z M27.7,34.2
	c0.6,7.3,1.1,13.4,1.6,19c6.8,0,12.8,0,19.2,0c-0.4-5.8-0.7-10.9-1.3-16c-0.1-1.1-1.8-2.8-2.9-2.9C39,34.1,33.7,34.2,27.7,34.2z
	 M52.4,56.5c0,6.8,0,12.9,0,19.3c5.7-0.5,10.8-0.7,15.9-1.4c1.1-0.1,2.9-1.5,3-2.4c0.3-5.5,0.1-11.1,0.1-17
	C64.2,55.5,58.3,56,52.4,56.5z M48.1,79.8c-5.4,0-10.5-0.1-15.6,0.1c-1,0-2.8,1.5-2.8,2.4c-0.3,5.4-0.1,10.8-0.1,16.4
	c5.1,0,10.4,0.1,15.6-0.1c1,0,2.8-1.6,2.8-2.5C48.2,90.7,48.1,85.2,48.1,79.8z M209.6,99c5.3-0.3,10.6-0.4,15.9-0.9
	c1-0.1,2.6-1.4,2.7-2.2c0.5-5.5,0.7-11.1,1-17.1c-6,0.3-11.1,0.3-16.2,0.9c-1.2,0.1-3.1,2-3.2,3.2C209.4,87.9,209.6,93,209.6,99z
	 M71.9,119.2c6.1-0.5,11.4-0.9,16.7-1.4c1-0.1,2.6-1,2.6-1.7c0.7-5.8,1.1-11.7,1.7-18c-6.2,0.6-11.4,0.9-16.4,1.6
	c-1.2,0.2-2.8,1.8-3,2.9C72.7,107.8,72.4,113.1,71.9,119.2z M139.5,117.2c6.6,0.5,12.6,1.1,19.1,1.6c0.6-6.6,1.1-12.6,1.6-19
	c-5.8-0.5-10.9-1.2-16.1-1.3c-1.1,0-3.1,1.8-3.3,3C140.2,106.3,140,111.3,139.5,117.2z M228.5,52.9c-0.5-6.6-1-12.6-1.5-19.1
	c-6.6,0.3-12.6,0.6-19.1,0.8c0.5,6.6,1,12.7,1.5,19.3C215.9,53.5,221.9,53.2,228.5,52.9z M160.7,96.4c0.3-6,0.6-11.2,0.7-16.5
	c0-0.9-1.2-2.6-1.9-2.7c-5.5-0.7-11.1-1-17-1.5c-0.3,6-0.7,11.1-0.7,16.2c0,1,1.3,2.9,2.2,3C149.3,95.6,154.7,95.9,160.7,96.4z
	 M48.5,76.5c0-7.3,0-13.3,0-19.1c-6.6,0-12.6,0-18.8,0c0,5.8-0.2,11.1,0.1,16.4c0.1,1,1.9,2.5,3,2.6C38,76.6,43.1,76.5,48.5,76.5z
	 M182.3,170c0.4,5.6,0.7,11.2,1.3,16.8c0.1,0.7,1.1,1.9,1.8,1.9c5.7,0.1,11.4,0.1,17.4,0.1c-0.3-5.6-0.5-10.7-1-15.8
	c-0.1-1.1-1.6-2.8-2.5-2.8C193.9,169.8,188.4,170,182.3,170z M134.2,184.1c0-5.4,0.1-10.5-0.1-15.6c0-1.1-1-3-1.7-3
	c-5.6-0.2-11.2-0.1-16.8-0.1c-0.1,3.7-0.3,7.5-0.3,11.2c0,1.5-0.2,3.1,0.3,4.4c0.5,1.2,1.8,2.9,2.9,3
	C123.7,184.2,129,184.1,134.2,184.1z M95.2,206.4c6.9,0,12.9,0,19.2,0c-0.5-5.9-0.9-11-1.5-16.1c-0.1-1-1.3-2.7-2-2.7
	c-5.7,0-11.4,0.3-17.5,0.6C94.1,194.9,94.7,200.8,95.2,206.4z M208.5,102.2c-0.6,6.6-1.2,12.7-1.8,19.5c6.2-0.3,11.8-0.4,17.4-0.9
	c0.8-0.1,2-1.4,2.1-2.2c0.6-5.5,1-11.1,1.5-16.4C220.9,102.2,214.8,102.2,208.5,102.2z M92.4,210.8c-6.8,0.7-12.8,1.2-19.1,1.8
	c0.5,6.7,0.9,12.8,1.4,19.1c6.6-0.6,12.6-1.2,19-1.8C93.3,223.4,92.9,217.5,92.4,210.8z M69.8,164.5c6.1-0.5,11.5-0.9,16.9-1.5
	c0.7-0.1,1.9-1.1,1.9-1.7c0.2-5.7,0.1-11.4,0.1-17.6c-5.7,0.5-10.9,0.8-16.2,1.5c-1,0.1-2.6,1.7-2.7,2.7
	C69.7,153,69.8,158.3,69.8,164.5z M201.3,147.4c-6.5,0-12.6,0-19,0c0,5.5-0.1,10.6,0.1,15.7c0,1,1.2,2.7,1.9,2.8
	c5.6,0.5,11.2,0.6,17,0.9C201.3,160.1,201.3,154.1,201.3,147.4z M96.5,49.4c6.7-0.3,12.8-0.6,19.2-0.9c-0.5-6-0.8-11-1.5-15.9
	c-0.2-1.2-1.7-2.9-2.8-3c-5.4-0.3-10.8-0.1-16.6-0.1C95.4,36.8,95.9,42.7,96.5,49.4z M50.7,211.2c5.8-0.5,11-0.7,16.1-1.4
	c1-0.1,2.7-1.7,2.6-2.6c-0.3-5.4-0.9-10.8-1.5-16.7c-6.7,0.5-12.7,1-19,1.5C49.5,198.7,50,204.6,50.7,211.2z M160.1,141.6
	c6.8,0.6,12.8,1,19.1,1.6c0.5-6.8,0.9-12.8,1.3-19.1c-6.7-0.6-12.7-1.1-19-1.6C161,129.1,160.6,135,160.1,141.6z M137.9,97.9
	c-5.8-0.3-11.1-0.6-16.4-0.6c-1,0-2.8,1.4-2.9,2.4c-0.7,5.4-1,10.8-1.5,16.8c6.6,0,12.6,0,19.1,0
	C136.8,110.5,137.4,104.5,137.9,97.9z M93.4,75.5c-6,0.5-12.1,1-18.7,1.6c0,6.5,0,12.7,0,19.2c5.3-0.4,10.5-0.8,15.8-1.4
	c1.1-0.1,2.7-1.6,2.8-2.5C93.5,87,93.4,81.6,93.4,75.5z M96.5,93.9c18.2,2.1,20.6,0.1,20-15.5c0-0.3,0.1-0.8,0-1
	c-0.8-1-1.7-2.6-2.6-2.7c-5.4-0.3-10.8-0.1-16.4-0.1C97.1,81.8,96.8,87.7,96.5,93.9z M209,215.1c-0.6,19.3,0.4,20.4,16.1,18.6
	c0.5-0.1,1.1,0.1,1.5-0.2c0.8-0.6,2.1-1.5,2.1-2.2c-0.1-5.6-0.5-11.2-0.8-17.1C221.1,214.5,215.2,214.8,209,215.1z M187.2,234.4
	c5.7,0,11,0.2,16.2-0.1c1-0.1,2.7-1.9,2.7-3c0.1-4.5-0.3-9-0.8-13.5c-0.1-1-1.4-2.5-2.2-2.6c-5.6-0.2-11.2-0.1-17.1-0.1
	C186.5,221.5,186.8,227.5,187.2,234.4z M205,169.8c0.4,6.9,0.8,12.9,1.2,18.8c6.7,0,12.8,0,19.2,0c-0.4-6.7-0.8-12.7-1.2-18.8
	C217.8,169.8,211.9,169.8,205,169.8z M73,209.3c6.5-0.6,12.5-1.1,19-1.7c-0.6-6.6-1.2-12.6-1.8-19c-6.5,0.6-12.4,1.1-19,1.7
	C71.8,196.7,72.4,202.7,73,209.3z M161.9,119.1c5.9,0.5,11,1.1,16.2,1.4c1,0,2.9-1.3,3-2.1c0.7-5.4,1-10.9,1.5-16.7
	c-6.5-0.5-12.6-1-19-1.5C163,106.6,162.5,112.5,161.9,119.1z M187.3,57.2c0,5.6-0.2,10.8,0.1,15.9c0.1,1.1,1.7,2.8,2.8,2.9
	c4.3,0.5,8.6,0.3,12.9,0.5c2.5,0.1,3.6-0.9,3.5-3.5c-0.2-4.3,0-8.6-0.4-12.9c-0.1-1-1.5-2.8-2.4-2.8C198.4,57,193,57.2,187.3,57.2z
	 M51.7,52.8c18.6,1.2,20.1-0.2,17.9-16.2c-0.1-0.5,0.1-1.2-0.2-1.5c-0.8-0.8-1.8-2.2-2.6-2.1c-5.4,0.2-10.8,0.7-16.6,1.2
	C50.7,40.7,51.2,46.6,51.7,52.8z M72.5,32.2c0.6,6.7,1.1,12.8,1.7,19.1c5.8-0.5,11-0.8,16.1-1.4c1-0.1,2.7-1.7,2.6-2.5
	c-0.2-5.4-0.9-10.8-1.4-16.7C85,31.1,79.1,31.6,72.5,32.2z M137.5,142.9c0,6.8,0,12.9,0,19.2c6.3,0.5,12.3,1,19.1,1.5
	c0-6,0.1-11.3-0.1-16.5c0-1-1.5-2.7-2.4-2.8C148.8,143.7,143.5,143.4,137.5,142.9z M183.3,79.1c-6-0.4-12-0.9-18.5-1.4
	c-0.3,6-0.6,11.3-0.6,16.6c0,0.9,1.6,2.5,2.6,2.6c4.3,0.6,8.6,0.8,12.9,1.2c2.7,0.3,3.6-0.9,3.6-3.4
	C183.3,89.8,183.3,84.8,183.3,79.1z M138.3,93.9c0.2-5.4,0.6-10.6,0.6-15.7c0-1-1.7-2.8-2.7-2.9c-4.5-0.5-9-0.6-13.5-0.5
	c-1,0-2.8,1.5-2.8,2.4c-0.3,5.4-0.1,10.8-0.1,16.7C125.8,93.9,131.8,93.9,138.3,93.9z M111.4,142.3c-5.9,0.3-11.2,0.4-16.5,0.9
	c-0.9,0.1-2.4,1.5-2.4,2.4c-0.2,5.4-0.1,10.9-0.1,16.2c5.7,0,11,0.1,16.3-0.1c0.9,0,2.5-1.7,2.6-2.7
	C111.5,153.6,111.4,148.3,111.4,142.3z M24.8,170.1c0.4,5.9,0.6,11.2,1.2,16.4c0.1,1,1.7,2.6,2.6,2.6c5.4,0.3,10.8,0.1,16.6,0.1
	c-0.5-7-0.9-13-1.3-19.2C37.6,170.1,31.6,170.1,24.8,170.1z M24.9,144c6.2,0,11.4,0.1,16.7-0.1c0.9,0,2.5-1.3,2.6-2.1
	c0.6-5.5,0.8-11.1,1.1-16.7c-6.6,0-12.7,0-19.1,0C25.8,131.4,25.4,137.3,24.9,144z M28.6,215.2c0.3,6,0.4,11.3,1,16.6
	c0.1,1,1.8,2.5,2.8,2.5c5.3,0.3,10.5,0.1,16.5,0.1c-0.4-7.1-0.7-13.1-1.1-19.2C41.2,215.2,35.2,215.2,28.6,215.2z M66.4,145.7
	c-6,0.4-11.4,0.7-16.8,1.3c-0.9,0.1-2.2,1.6-2.2,2.5c-0.2,5.4-0.1,10.8-0.1,16.9c6-0.5,11.5-0.7,16.8-1.4c0.9-0.1,2.2-1.9,2.2-3
	C66.5,156.8,66.4,151.7,66.4,145.7z M134.4,138.9c0.5-6,0.9-12,1.5-19.1c-6,0-11.4-0.1-16.8,0.1c-0.9,0-2.3,1.4-2.4,2.3
	c-0.6,5.4-0.9,10.8-1.4,16.7C121.9,138.9,127.9,138.9,134.4,138.9z"/>
</svg>
