<?xml version="1.0" standalone="no"?>
<!DOCTYPE svg PUBLIC "-//W3C//DTD SVG 20010904//EN"
 "http://www.w3.org/TR/2001/REC-SVG-20010904/DTD/svg10.dtd">
<svg version="1.0" xmlns="http://www.w3.org/2000/svg"
 width="512.000000pt" height="512.000000pt" viewBox="0 0 512.000000 512.000000"
 preserveAspectRatio="xMidYMid meet">

<g transform="translate(0.000000,512.000000) scale(0.100000,-0.100000)"
 stroke="none">
<path d="M725 4672 c-120 -41 -205 -117 -258 -230 l-32 -67 0 -1715 0 -1715
22 -70 c61 -191 219 -351 413 -418 l65 -22 1345 -5 c740 -3 1471 -3 1625 0
252 5 286 8 345 28 189 63 347 221 413 412 l22 65 3 1161 2 1160 -23 45 c-13
24 -43 58 -66 74 l-43 30 -358 3 -359 3 -3 477 c-3 464 -4 478 -25 530 -32 80
-97 158 -166 203 -114 74 -9 69 -1516 69 -1260 -1 -1360 -2 -1406 -18z m1369
-844 c57 -17 119 -82 135 -141 27 -95 -13 -195 -97 -244 l-47 -28 -345 -3
c-411 -4 -431 -2 -500 67 -106 106 -81 269 51 335 l53 26 354 0 c252 0 367 -4
396 -12z m899 -768 c21 -14 50 -43 65 -64 24 -35 27 -49 27 -116 0 -67 -3 -81
-27 -116 -15 -21 -44 -50 -65 -64 l-37 -25 -800 -3 c-551 -2 -813 0 -838 8
-147 42 -191 250 -76 357 58 54 27 53 904 50 l810 -2 37 -25z m1275 -1030 c2
-697 0 -970 -9 -1009 -9 -43 -21 -63 -58 -101 -58 -58 -101 -70 -250 -70
l-111 0 0 1070 0 1070 213 -2 212 -3 3 -955z m-1293 293 c76 -40 115 -105 115
-188 0 -85 -48 -160 -125 -196 -38 -18 -82 -19 -831 -19 l-790 0 -53 26 c-134
67 -158 244 -45 342 24 22 61 45 82 50 23 7 326 10 822 9 783 -2 785 -2 825
-24z m-10 -742 c158 -72 167 -295 15 -381 l-45 -25 -770 -3 c-561 -2 -785 0
-824 8 -74 16 -143 83 -160 156 -24 98 20 193 110 238 l53 26 790 0 c743 0
793 -2 831 -19z"/>
</g>
</svg>
