<?xml version="1.0" encoding="utf-8"?>
<!-- Generator: Adobe Illustrator 24.1.2, SVG Export Plug-In . SVG Version: 6.00 Build 0)  -->
<svg version="1.1" id="Layer_1" xmlns="http://www.w3.org/2000/svg" xmlns:xlink="http://www.w3.org/1999/xlink" x="0px" y="0px"
	 viewBox="0 0 372.2 336.1" style="enable-background:new 0 0 372.2 336.1;" xml:space="preserve">
<g>
	<path d="M151.1,101.9c71.4-32.3,141.9-64.2,212.5-96.1c-0.1-0.2-0.1-0.4-0.2-0.7c-1.5,0.4-3,0.8-4.5,1.3
		c-87.8,26.5-175.6,53-263.4,79.6c-2.7,0.8-4.9,0.7-7.4-0.6c-21-10.5-42.1-20.8-63-31.4c-2.6-1.3-5.2-3.7-6.4-6.3
		c-2.4-5.1,1.7-10.9,7.6-11.6c16.6-1.8,33.3-3.5,49.9-5.3c24.5-2.6,48.9-5.3,73.4-7.9c24.6-2.6,49.2-5.2,73.8-7.9
		c24.5-2.6,48.9-5.3,73.4-7.9c21.5-2.3,43-4.6,64.5-7c4.2-0.5,7.4,0.8,9.5,4.4c2.3,3.9,1.1,7.4-1.1,10.9
		c-23.4,37.4-46.8,74.8-70.1,112.2c-6.1,9.7-12.1,19.5-18.3,29.2c-3.5,5.5-7.6,6.6-13.4,3.7c-38-18.9-76-37.9-113.9-56.9
		C153.3,103.2,152.6,102.8,151.1,101.9z"/>
	<path d="M61.5,252.5c1,0.3,1.5,0.4,2.1,0.6c10.7,2.9,18,9.3,19.9,20.5c2,11.8-0.5,22.6-10.1,30.5c-14.7,12.2-34.8,4.3-38-14.9
		c-0.6-3.4-0.7-6.9-1.2-11.7c-3.3,4.2-6.3,7.5-8.5,11.2c-6.3,10.5-8.1,22.1-7.8,34.2c0,1.4,0.2,2.8,0.1,4.1
		c-0.1,4.9-3.6,8.7-8.3,9.1c-4.6,0.4-9.2-2.9-9.5-7.7C-1.2,304.8,3,282.9,21.2,266c4.5-4.2,10.2-7,15.7-10c2.2-1.2,3.7-2.5,4.8-4.8
		c8.7-18.2,22.2-30.5,42.3-34.7c6.2-1.3,11,1.5,12.1,6.9c1,5.1-2.4,9.4-8.6,10.6C76.2,236.5,67.8,242.8,61.5,252.5z M54,270.4
		c-1.4,5.6-2,11.2-0.5,16.9c1.2,4.7,5.1,5.8,8.8,2.7c3.4-2.9,5-10.7,3.1-14.9C63.8,271.6,59.5,269.8,54,270.4z"/>
	<path d="M119.2,215.3c9.7-34.9,19.2-69.5,29-104.6c22,11,43.8,21.8,65.8,32.8c-1.1,1-2,1.9-2.9,2.6c-26.7,22-53.4,44-80.1,66.1
		C127.8,215,124.4,217.1,119.2,215.3z"/>
	<path d="M92.8,96.1c47.6-14.4,94.8-28.6,142-42.9c0.1,0.2,0.2,0.3,0.2,0.5c-0.6,0.4-1.1,0.8-1.8,1.1
		c-27.8,12.6-55.6,25.5-83.6,37.6c-5.3,2.3-7.4,5.3-8.8,10.4c-8.6,31.8-17.5,63.5-26.3,95.2c-0.3,1.1-0.8,2.2-1.8,3.2
		C106.2,166.3,99.6,131.4,92.8,96.1z"/>
</g>
</svg>
