<?xml version="1.0" encoding="utf-8"?>
<!-- Generator: Adobe Illustrator 27.2.0, SVG Export Plug-In . SVG Version: 6.00 Build 0)  -->
<svg version="1.1" id="Layer_1" xmlns="http://www.w3.org/2000/svg" xmlns:xlink="http://www.w3.org/1999/xlink" x="0px" y="0px"
	 viewBox="0 0 465.44 458.31" style="enable-background:new 0 0 465.44 458.31;" xml:space="preserve">
<path d="M106.73,457.27c-15.16,4.81-31.23-7.01-45.5-36.63c-15.59-32.77-29.97-66.14-44.96-99.21C3.36,306.5-0.67,288.2,0.09,269.64
	c1.02-31.88,31.1-46.9,56.99-28.41c13.99,10,27.96,21.5,30.04,40.83c18.85,36.7,31.24,75.88,38.38,116.37
	C131.07,430.07,122.94,452.02,106.73,457.27z"/>
<path d="M297.99,282.93c-3.45-9.85-7.52-20.04-13.7-28.31c-27.38-36.71-55.26-73.11-89.65-103.77c-6.92-6.2-14.74-11.73-22.93-16.08
	c-12.37-6.54-25.01-6.44-35.85,3.76c-10.73,10.1-11.24,22.39-6.81,35.7c3.4,10.26,9.03,19.24,16.22,26.96
	c13.6,14.57,27.84,28.54,36.24,37.08c21.36,19.77,36.55,34.5,52.53,48.3c9.73,8.39,20.25,16.08,31.23,22.8
	c8.27,5.09,17.87,6.19,26.28-0.78C299.83,301.75,301.22,292.25,297.99,282.93z"/>
<path d="M429.38,110.73c-13.64,1.23-27.88,3.95-40.84-4.09l-0.15,0.15c-48.03-3.86-95.91-8.16-141.73-24.28
	c-13.14-4.6-26.11-10.56-38.48-17.1c-12.52-6.4-19.02-17.23-17.84-31.75c1.17-14.51,10.83-22.81,23.3-28.25
	c12.02-4.99,25.05-5.62,38.08-5.36c43.87,0.53,85.85,11.22,127.51,24.01c23.07-1.3,43.2,8.61,62.88,18.36
	c15.5,7.92,25.72,20.73,22.87,39.58C462.58,97.39,449.16,108.8,429.38,110.73z"/>
</svg>
