<?xml version="1.0" encoding="utf-8"?>
<!-- Generator: Adobe Illustrator 27.2.0, SVG Export Plug-In . SVG Version: 6.00 Build 0)  -->
<svg version="1.1" id="Layer_1" xmlns="http://www.w3.org/2000/svg" xmlns:xlink="http://www.w3.org/1999/xlink" x="0px" y="0px"
	 viewBox="0 0 383.3 215.7" style="enable-background:new 0 0 383.3 215.7;" xml:space="preserve">
<path d="M383.3,132.5c-0.2,0.6-0.6,1.1-0.7,1.7c-2.4,11.1-11,18-22.8,18.3c-11.3,0.3-20.6-6.5-23.2-17.3c-0.7-2.8-0.8-5.7-0.8-8.5
	c-0.1-14.2-0.1-28.4-0.1-42.7c0-0.6-0.1-1.2-0.3-2.5c-1.4,1.4-2.4,2.3-3.4,3.3c-32.2,32.4-64.4,64.7-96.7,97
	c-3.3,3.3-7,6.5-10.9,9.1c-8,5.3-16.3,5.1-24.2-0.1c-3.5-2.3-6.7-5.2-9.7-8.1c-19.8-19.7-39.5-39.5-59.2-59.3
	c-0.9-0.9-1.4-2.1-2.2-3.4c-15.6,15.6-30.4,30.5-45.2,45.3c-14.1,14.1-28.1,28.3-42.3,42.4c-7.6,7.5-16.6,10.3-26.7,6.2
	c-17.1-7-19.7-25.8-6.7-40.1c8.7-9.6,18.1-18.6,27.3-27.7c24.8-24.8,49.6-49.6,74.4-74.3c11.9-11.9,25.5-12,37.5-0.1
	c20.4,20.2,40.6,40.6,60.9,60.9c0.9,1,1.4,2.4,1.9,3.2c29.8-29.7,58.7-58.5,88.1-87.8c-1.8,0-3.2,0-4.6,0
	c-13.1-0.1-26.2-0.1-39.3-0.4c-17.1-0.5-27.4-15.1-22.3-31.4c3-9.7,11.3-15.8,22.1-15.8C277.5,0,300.8,0,324.1,0
	c10.2,0,20.5,0,30.7,0c17.5,0,22.9,3.9,28.5,20.2C383.3,57.6,383.3,95.1,383.3,132.5z"/>
</svg>
