<?xml version="1.0" encoding="utf-8"?>
<!-- Generator: Adobe Illustrator 27.2.0, SVG Export Plug-In . SVG Version: 6.00 Build 0)  -->
<svg version="1.1" id="Layer_1" xmlns="http://www.w3.org/2000/svg" xmlns:xlink="http://www.w3.org/1999/xlink" x="0px" y="0px"
	 viewBox="0 0 905.76 427.8" style="enable-background:new 0 0 905.76 427.8;" xml:space="preserve">
<path d="M640.31,402.95c-48.91-57.58-97.83-115.14-146.75-172.7c59.44,39.94,121.48,75.85,186.01,107.43
	c12.55,6.14,28.17-8.34,16.91-20.08c-64.71-67.5-129.48-134.94-194.16-202.47c128.41,75.2,256.83,150.39,385.24,225.59
	c12.48,7.31,23.44-7.55,15.51-18.42C815.07,201.57,710.97,95.11,593.89,2.37c-11.43-9.06-23.64,10.08-12.26,19.06
	C680.78,99.64,769.72,190,847.68,289.21c-136.07-79.74-272.14-159.49-408.2-239.23c-11.66-6.83-25.55,8.16-15.64,18.57
	c66.2,69.54,132.21,139.28,198.24,208.99c-72.18-40.44-141.01-86.4-206.15-137.74c-12.81-10.1-27.45,9.5-17.71,21.04
	c55.52,65.77,111.04,131.53,166.57,197.29C464.54,299.6,364.3,241.06,264.06,182.53c-15.28-8.92-29.26,9.36-19.18,22.77
	c42.06,55.94,84.13,111.88,126.19,167.82c-53.46-24.24-106.93-48.48-160.39-72.71c-12.86-5.83-24.88,11-18.79,22.23
	c8.16,15.06,16.3,30.13,24.46,45.19c-63.32-22.02-128.14-39.1-194.03-51.97c-24.82-4.85-31.68,30.29-6.42,34.27
	c78.68,12.4,155,33.88,229.45,62.09c13.03,4.94,25.52-10.64,19.03-22.51c-7.47-13.65-14.93-27.31-22.39-40.96
	c57.52,25.88,115.03,51.77,172.55,77.65c15.55,7,24.27-14.25,16.11-25.04c-39.32-51.99-78.64-103.98-117.96-155.98
	c103.08,59.8,206.16,119.61,309.23,179.41C636.04,433.01,651.07,415.62,640.31,402.95z"/>
</svg>
