<?xml version="1.0" standalone="no"?>
<!DOCTYPE svg PUBLIC "-//W3C//DTD SVG 20010904//EN"
 "http://www.w3.org/TR/2001/REC-SVG-20010904/DTD/svg10.dtd">
<svg version="1.0" xmlns="http://www.w3.org/2000/svg"
 width="512.000000pt" height="512.000000pt" viewBox="0 0 512.000000 512.000000"
 preserveAspectRatio="xMidYMid meet">

<g transform="translate(0.000000,512.000000) scale(0.100000,-0.100000)"
>
<path d="M2430 5114 c-527 -43 -923 -180 -1265 -438 -102 -77 -264 -238 -342
-341 -346 -458 -454 -1078 -277 -1587 98 -280 245 -471 493 -636 68 -45 126
-82 130 -82 4 0 45 143 91 318 94 353 96 376 62 520 -57 237 -42 568 33 769
146 386 678 641 1240 593 530 -44 893 -302 994 -706 103 -407 -89 -1028 -387
-1258 -107 -82 -208 -119 -319 -118 -146 1 -249 55 -299 157 -39 81 -31 139
56 420 206 664 226 894 95 1100 -61 97 -178 178 -302 210 -75 20 -219 19 -297
-1 -214 -55 -399 -235 -485 -470 -47 -128 -64 -224 -64 -369 0 -139 9 -209 49
-349 23 -82 24 -96 14 -155 -13 -77 -61 -271 -159 -639 -179 -672 -243 -1039
-244 -1387 0 -153 4 -208 21 -286 22 -107 65 -220 118 -315 l36 -64 101 69
c107 73 208 168 278 261 166 222 333 611 475 1104 19 66 37 122 39 124 2 3 26
-10 53 -27 98 -63 211 -109 352 -143 85 -20 374 -17 480 5 482 103 933 436
1196 883 279 475 338 1042 164 1589 -86 271 -250 532 -452 720 -299 279 -695
454 -1168 515 -87 11 -428 21 -510 14z m509 -319 c399 -58 722 -204 966 -437
250 -239 389 -525 440 -908 78 -576 -165 -1145 -640 -1501 -396 -297 -877
-365 -1177 -166 -77 52 -150 128 -258 271 -52 69 -97 125 -100 125 -3 1 -31
-99 -64 -222 -171 -649 -268 -939 -401 -1202 -33 -66 -81 -151 -105 -188 l-45
-68 -8 48 c-4 26 -5 104 -2 173 14 300 73 626 200 1115 154 590 196 764 207
851 13 99 14 92 -37 279 -66 247 -19 513 118 662 31 32 79 72 109 88 48 27 62
30 143 30 107 0 154 -19 198 -82 69 -98 39 -305 -123 -827 -39 -127 -77 -259
-85 -294 -86 -370 199 -697 605 -694 233 1 434 93 613 281 203 212 337 505
402 876 116 657 -185 1195 -795 1424 -671 251 -1515 56 -1884 -436 -113 -151
-167 -282 -207 -509 -38 -214 -25 -536 29 -729 6 -21 2 -55 -14 -118 -12 -49
-24 -91 -27 -93 -8 -9 -89 118 -128 200 -183 392 -127 935 140 1333 107 159
254 308 413 415 76 52 251 143 348 181 164 65 403 118 617 137 130 12 422 4
552 -15z"/>
</g>
</svg>
